<svg width="1440" height="168" xmlns="http://www.w3.org/2000/svg" xmlns:xlink="http://www.w3.org/1999/xlink"><defs><path id="a" d="M0 0h1440v168H0z"/><linearGradient x1="70.8%" y1="80.54%" x2="70.8%" y2="96.06%" id="c"><stop stop-color="#F3F3F3" offset="0%"/><stop stop-color="#F3F3F3" stop-opacity=".5" offset="100%"/></linearGradient><linearGradient x1="70.8%" y1="80.54%" x2="70.8%" y2="96.06%" id="d"><stop stop-color="#F3F3F3" offset="0%"/><stop stop-color="#F3F3F3" stop-opacity=".5" offset="100%"/></linearGradient></defs><g fill="none" fill-rule="evenodd"><mask id="b" fill="#fff"><use xlink:href="#a"/></mask><g mask="url(#b)"><path d="M0 20c36.28 88.05 161.15 97.08 374.62 27.1 202.62-66.43 589.6 48.45 662.19 63.55 102.15 21.25 271.31-60.61 370.19-42.48 149.3 27.36 217.04 76.85 262.62 118.23 104.69 95.04 60.3 540.29-20.31 603.4-46.23 36.2-143.34-84.11-269.59-62.68-120.3 20.43-274.91 90.92-338.78 78.4-150.36-29.47-214.7-52.36-339.32-15.71-134.65 39.6-227.92-34.85-345.35-55.2-116.5-20.2-204.61-1.8-264.37 55.2L0 20z" fill="url(#c)" transform="matrix(-1 0 0 1 1541 -659)"/><path d="M190 42.83c74.86 103.84 219.04 120.36 432.55 49.55 202.65-67.2 427.88-34.78 500.47-19.5 102.17 21.5 264.64-89.16 363.54-70.82 63.38 11.75 143.58 38.96 143.64 80.02.22 138.42.22 641.13.22 641.13s-89.9-23.64-154.49-12.54c-120.33 20.66-211.74 120.2-349.64 94.7-151.71-28.05-238.55-93.75-363.18-56.68-134.68 40.07-219.62 94.39-337.06 73.8-116.52-20.43-195.2-57.7-236.05-111.82V42.83z" fill="url(#d)" transform="translate(-190 -659)"/></g></g></svg>